<svg width="680" height="334" viewBox="0 0 462 334" fill="none" xmlns="http://www.w3.org/2000/svg">
<rect x="340" y="172" width="122" height="122" rx="32" fill="#6643E2" fill-opacity="0.15"/>
<path d="M418.12 231.826H420.402V234.109H418.12V231.826Z" fill="black"/>
<path d="M402.141 236.391C403.541 236.397 404.891 235.882 405.933 234.948L402.476 231.492C402.03 231.046 402.03 230.324 402.476 229.878L405.933 226.422C404.891 225.488 403.541 224.973 402.141 224.979C400.103 224.979 398.219 226.066 397.2 227.832C396.18 229.597 396.18 231.773 397.2 233.538C398.219 235.304 400.103 236.391 402.141 236.391ZM401 226.12H403.283V228.402H401V226.12Z" fill="#A78EF4"/>
<path d="M411.272 243.239V218.131H390.729V243.239H411.272ZM402.142 222.696C404.593 222.687 406.911 223.814 408.419 225.747C408.776 226.202 408.735 226.853 408.324 227.261L404.9 230.685L408.324 234.109C408.732 234.517 408.771 235.166 408.415 235.62C406.714 237.786 404.018 238.922 401.28 238.628C398.542 238.334 396.148 236.651 394.946 234.174C393.743 231.696 393.901 228.774 395.364 226.441C396.826 224.108 399.388 222.693 402.142 222.696Z" fill="#6643E2"/>
<path d="M424.968 221.554C424.968 220.647 424.607 219.775 423.965 219.133C423.323 218.491 422.452 218.131 421.544 218.131H413.555V243.239H421.544C422.452 243.239 423.323 242.879 423.965 242.237C424.607 241.595 424.968 240.723 424.968 239.815V221.554ZM422.685 240.957H415.837V238.674H422.685V240.957ZM422.685 234.109H420.402V236.391H418.12V234.109H415.837V231.826H418.12V229.544H420.402V231.826H422.685V234.109Z" fill="#6643E2"/>
<path d="M416.978 201.011H385.022C383.811 201.011 382.65 201.492 381.793 202.348C380.938 203.204 380.457 204.366 380.457 205.576V215.848H421.543V205.576C421.543 204.366 421.063 203.204 420.207 202.348C419.35 201.492 418.189 201.011 416.978 201.011ZM395.293 205.576H393.011V203.294H395.293V205.576ZM404.424 205.576H397.576V203.294H404.424V205.576Z" fill="url(#paint0_radial_1769_25080)"/>
<path d="M403.283 258.076H398.717C398.087 258.076 397.576 258.587 397.576 259.217C397.576 259.848 398.087 260.359 398.717 260.359H403.283C403.913 260.359 404.424 259.848 404.424 259.217C404.424 258.587 403.913 258.076 403.283 258.076Z" fill="black"/>
<path d="M388.446 243.239V218.131H380.457C379.549 218.131 378.677 218.491 378.035 219.133C377.394 219.775 377.033 220.647 377.033 221.554V239.815C377.033 240.723 377.393 241.595 378.035 242.236C378.677 242.878 379.549 243.239 380.457 243.239L388.446 243.239ZM379.315 231.826H381.598V229.544H383.88V231.826H386.163V234.109H383.88V236.391H381.598V234.109H379.315V231.826ZM379.315 238.674H386.163V240.957H379.315V238.674Z" fill="#6643E2"/>
<path d="M380.457 245.522V260.359C380.457 261.57 380.938 262.731 381.793 263.587C382.65 264.443 383.811 264.924 385.022 264.924H416.978C418.189 264.924 419.35 264.443 420.207 263.587C421.063 262.731 421.543 261.569 421.543 260.359V245.522H380.457ZM403.283 262.642H398.717C397.494 262.642 396.364 261.989 395.752 260.93C395.141 259.87 395.141 258.565 395.752 257.506C396.364 256.446 397.494 255.794 398.717 255.794H403.283C404.506 255.794 405.636 256.446 406.248 257.506C406.859 258.565 406.859 259.87 406.248 260.93C405.636 261.989 404.506 262.642 403.283 262.642Z" fill="url(#paint1_radial_1769_25080)"/>
<path d="M374.505 322.101H380.455V322.815C380.455 324.368 379.922 325.66 378.857 326.691C377.792 327.711 376.381 328.221 374.624 328.221C372.811 328.221 371.309 327.626 370.119 326.436C368.94 325.223 368.351 323.761 368.351 322.05C368.351 320.339 368.94 318.882 370.119 317.681C371.309 316.48 372.799 315.879 374.59 315.879C375.678 315.879 376.687 316.145 377.616 316.678C378.557 317.211 379.265 317.902 379.741 318.752L378.381 319.551C378.041 318.905 377.525 318.389 376.834 318.004C376.143 317.607 375.389 317.409 374.573 317.409C373.202 317.409 372.085 317.857 371.224 318.752C370.351 319.647 369.915 320.747 369.915 322.05C369.915 323.353 370.351 324.453 371.224 325.348C372.108 326.232 373.247 326.674 374.641 326.674C375.808 326.674 376.76 326.391 377.497 325.824C378.245 325.246 378.704 324.481 378.874 323.529H374.505V322.101ZM388.854 320.962V319.5H390.333V328H388.854V326.538C388.129 327.66 387.058 328.221 385.641 328.221C384.44 328.221 383.426 327.79 382.598 326.929C381.76 326.056 381.34 324.997 381.34 323.75C381.34 322.515 381.76 321.461 382.598 320.588C383.437 319.715 384.451 319.279 385.641 319.279C387.058 319.279 388.129 319.84 388.854 320.962ZM385.828 326.793C386.69 326.793 387.409 326.504 387.987 325.926C388.565 325.325 388.854 324.6 388.854 323.75C388.854 322.889 388.565 322.169 387.987 321.591C387.409 321.002 386.69 320.707 385.828 320.707C384.978 320.707 384.264 321.002 383.686 321.591C383.108 322.169 382.819 322.889 382.819 323.75C382.819 324.6 383.108 325.325 383.686 325.926C384.264 326.504 384.978 326.793 385.828 326.793ZM401.346 319.279C402.309 319.279 403.08 319.591 403.658 320.214C404.247 320.837 404.542 321.67 404.542 322.713V328H403.063V322.764C403.063 322.118 402.893 321.614 402.553 321.251C402.224 320.877 401.771 320.69 401.193 320.69C400.536 320.69 400.02 320.911 399.646 321.353C399.283 321.784 399.102 322.424 399.102 323.274V328H397.623V322.764C397.623 322.118 397.459 321.614 397.13 321.251C396.813 320.877 396.376 320.69 395.821 320.69C395.175 320.69 394.648 320.917 394.24 321.37C393.843 321.812 393.645 322.447 393.645 323.274V328H392.166V319.5H393.645V320.639C394.223 319.732 395.067 319.279 396.178 319.279C397.323 319.279 398.156 319.761 398.677 320.724C399.266 319.761 400.156 319.279 401.346 319.279ZM414.345 324.43H407.222C407.369 325.178 407.715 325.767 408.259 326.198C408.803 326.617 409.483 326.827 410.299 326.827C411.421 326.827 412.237 326.413 412.747 325.586L414.005 326.3C413.166 327.581 411.92 328.221 410.265 328.221C408.928 328.221 407.828 327.802 406.967 326.963C406.128 326.102 405.709 325.031 405.709 323.75C405.709 322.458 406.123 321.393 406.95 320.554C407.777 319.704 408.848 319.279 410.163 319.279C411.41 319.279 412.424 319.721 413.206 320.605C413.999 321.466 414.396 322.52 414.396 323.767C414.396 323.982 414.379 324.203 414.345 324.43ZM410.163 320.673C409.381 320.673 408.724 320.894 408.191 321.336C407.67 321.778 407.347 322.379 407.222 323.138H412.9C412.775 322.356 412.464 321.75 411.965 321.319C411.466 320.888 410.866 320.673 410.163 320.673ZM422.046 323.495H415.841V322.067H422.046V323.495ZM431.033 316.1V317.596H425.763V321.455H430.812V322.951H425.763V328H424.182V316.1H431.033ZM433.135 317.953C432.851 317.953 432.613 317.857 432.421 317.664C432.228 317.471 432.132 317.239 432.132 316.967C432.132 316.695 432.228 316.463 432.421 316.27C432.613 316.066 432.851 315.964 433.135 315.964C433.407 315.964 433.639 316.066 433.832 316.27C434.024 316.463 434.121 316.695 434.121 316.967C434.121 317.239 434.024 317.471 433.832 317.664C433.639 317.857 433.407 317.953 433.135 317.953ZM433.866 328H432.387V319.5H433.866V328Z" fill="#FAFAFA"/>
<rect x="170" y="96" width="122" height="122" rx="32" fill="#6643E2" fill-opacity="0.15"/>
<path d="M227.901 170.552V171.522H234.038V170.552C234.038 168.228 235.928 166.338 238.252 166.338H259.702V134.564C259.702 132.148 257.735 130.196 255.334 130.196H206.59C204.188 130.196 202.236 132.148 202.236 134.564V166.338H223.686C226.01 166.338 227.9 168.228 227.9 170.552H227.901ZM249.687 149.263C249.687 148.487 250.316 147.858 251.092 147.858C251.869 147.858 252.497 148.487 252.497 149.263V161.011C252.497 161.787 251.869 162.416 251.092 162.416C250.316 162.416 249.687 161.787 249.687 161.011V149.263ZM243.813 146.326C243.813 145.55 244.441 144.921 245.218 144.921C245.995 144.921 246.623 145.55 246.623 146.326V161.011C246.623 161.787 245.995 162.416 245.218 162.416C244.441 162.416 243.813 161.787 243.813 161.011V146.326ZM237.94 149.263C237.94 148.487 238.568 147.858 239.344 147.858C240.121 147.858 240.749 148.487 240.749 149.263V161.011C240.749 161.787 240.121 162.416 239.344 162.416C238.568 162.416 237.94 161.787 237.94 161.011V149.263ZM232.064 153.669C232.064 152.893 232.692 152.264 233.469 152.264C234.245 152.264 234.873 152.893 234.873 153.669V161.011C234.873 161.787 234.245 162.416 233.469 162.416C232.692 162.416 232.064 161.787 232.064 161.011V153.669ZM219.42 139.887C224.908 140.573 229.188 145.195 229.319 150.833L219.42 149.828V139.887ZM206.703 151.097C206.703 145.335 211.034 140.578 216.611 139.886V151.1C216.611 151.822 217.159 152.426 217.878 152.498L229.037 153.628C227.881 158.651 223.377 162.419 218.012 162.419C211.775 162.419 206.704 157.334 206.704 151.097L206.703 151.097Z" fill="#6643E2"/>
<path d="M263.27 169.147H238.252C237.466 169.147 236.848 169.78 236.848 170.552V172.926C236.848 173.698 236.201 174.331 235.415 174.331H226.495C225.722 174.331 225.09 173.698 225.09 172.926V170.552C225.09 169.78 224.458 169.147 223.685 169.147H198.655C197.882 169.147 197.25 169.78 197.25 170.552V176.606C197.25 180.568 200.481 183.798 204.442 183.798H257.482C261.458 183.799 264.674 180.568 264.674 176.607V170.553C264.674 169.78 264.042 169.148 263.269 169.148L263.27 169.147Z" fill="url(#paint2_radial_1769_25080)"/>
<path d="M208.187 252H206.504L205.535 249.331H200.18L199.211 252H197.528L201.965 240.1H203.75L208.187 252ZM202.849 241.987L200.724 247.852H204.991L202.849 241.987ZM213.263 243.279C214.26 243.279 215.059 243.596 215.66 244.231C216.26 244.854 216.561 245.704 216.561 246.781V252H215.082V246.866C215.082 246.186 214.895 245.653 214.521 245.268C214.147 244.883 213.631 244.69 212.974 244.69C212.214 244.69 211.614 244.928 211.172 245.404C210.73 245.869 210.509 246.566 210.509 247.495V252H209.03V243.5H210.509V244.724C211.098 243.761 212.016 243.279 213.263 243.279ZM225.255 244.962V243.5H226.734V252H225.255V250.538C224.53 251.66 223.459 252.221 222.042 252.221C220.841 252.221 219.827 251.79 218.999 250.929C218.161 250.056 217.741 248.997 217.741 247.75C217.741 246.515 218.161 245.461 218.999 244.588C219.838 243.715 220.852 243.279 222.042 243.279C223.459 243.279 224.53 243.84 225.255 244.962ZM222.229 250.793C223.091 250.793 223.81 250.504 224.388 249.926C224.966 249.325 225.255 248.6 225.255 247.75C225.255 246.889 224.966 246.169 224.388 245.591C223.81 245.002 223.091 244.707 222.229 244.707C221.379 244.707 220.665 245.002 220.087 245.591C219.509 246.169 219.22 246.889 219.22 247.75C219.22 248.6 219.509 249.325 220.087 249.926C220.665 250.504 221.379 250.793 222.229 250.793ZM230.046 252H228.567V239.59H230.046V252ZM235.38 250.164L237.828 243.5H239.409L235.941 252.527C235.567 253.49 235.051 254.221 234.394 254.72C233.748 255.23 233.005 255.457 232.167 255.4V254.023C233.209 254.102 233.974 253.524 234.462 252.289L234.615 251.966L230.909 243.5H232.49L235.38 250.164ZM244.86 243.5V244.928H242.599V249.535C242.599 249.954 242.678 250.255 242.837 250.436C243.007 250.606 243.262 250.697 243.602 250.708C243.942 250.708 244.361 250.697 244.86 250.674V252C243.556 252.17 242.604 252.062 242.004 251.677C241.414 251.292 241.12 250.578 241.12 249.535V244.928H239.437V243.5H241.12V241.562L242.599 241.12V243.5H244.86ZM246.951 241.953C246.667 241.953 246.429 241.857 246.237 241.664C246.044 241.471 245.948 241.239 245.948 240.967C245.948 240.695 246.044 240.463 246.237 240.27C246.429 240.066 246.667 239.964 246.951 239.964C247.223 239.964 247.455 240.066 247.648 240.27C247.84 240.463 247.937 240.695 247.937 240.967C247.937 241.239 247.84 241.471 247.648 241.664C247.455 241.857 247.223 241.953 246.951 241.953ZM247.682 252H246.203V243.5H247.682V252ZM253.525 252.221C252.244 252.221 251.179 251.796 250.329 250.946C249.479 250.085 249.054 249.019 249.054 247.75C249.054 246.481 249.479 245.421 250.329 244.571C251.179 243.71 252.244 243.279 253.525 243.279C254.364 243.279 255.117 243.483 255.786 243.891C256.455 244.288 256.953 244.826 257.282 245.506L256.041 246.22C255.826 245.767 255.491 245.404 255.038 245.132C254.596 244.86 254.092 244.724 253.525 244.724C252.675 244.724 251.961 245.013 251.383 245.591C250.816 246.18 250.533 246.9 250.533 247.75C250.533 248.589 250.816 249.303 251.383 249.892C251.961 250.47 252.675 250.759 253.525 250.759C254.092 250.759 254.602 250.629 255.055 250.368C255.508 250.096 255.854 249.733 256.092 249.28L257.35 250.011C256.976 250.691 256.449 251.229 255.769 251.626C255.089 252.023 254.341 252.221 253.525 252.221ZM259.611 245.795C259.611 246.339 260.172 246.764 261.294 247.07C261.713 247.161 262.065 247.257 262.348 247.359C262.643 247.45 262.96 247.591 263.3 247.784C263.651 247.977 263.918 248.232 264.099 248.549C264.28 248.866 264.371 249.24 264.371 249.671C264.371 250.442 264.071 251.059 263.47 251.524C262.869 251.989 262.11 252.221 261.192 252.221C260.376 252.221 259.668 252.045 259.067 251.694C258.478 251.331 258.058 250.844 257.809 250.232L259.084 249.501C259.22 249.909 259.475 250.232 259.849 250.47C260.223 250.708 260.671 250.827 261.192 250.827C261.702 250.827 262.11 250.731 262.416 250.538C262.722 250.345 262.875 250.056 262.875 249.671C262.875 249.093 262.314 248.674 261.192 248.413C260.818 248.311 260.535 248.232 260.342 248.175C260.149 248.118 259.883 248.016 259.543 247.869C259.214 247.722 258.965 247.569 258.795 247.41C258.625 247.24 258.466 247.019 258.319 246.747C258.183 246.464 258.115 246.152 258.115 245.812C258.115 245.075 258.398 244.469 258.965 243.993C259.543 243.517 260.263 243.279 261.124 243.279C261.815 243.279 262.427 243.438 262.96 243.755C263.504 244.061 263.912 244.492 264.184 245.047L262.943 245.744C262.637 245.019 262.031 244.656 261.124 244.656C260.693 244.656 260.331 244.758 260.036 244.962C259.753 245.166 259.611 245.444 259.611 245.795Z" fill="#FAFAFA"/>
<rect width="122" height="122" rx="32" fill="#6643E2" fill-opacity="0.15"/>
<path fill-rule="evenodd" clip-rule="evenodd" d="M46.0149 55.896H81.6523C83.2593 55.896 84.5738 57.2106 84.5738 58.8175V65.0687H74.3397C72.3867 65.0687 70.795 66.6604 70.795 68.6134V76.3947C70.795 78.3477 72.3867 79.9394 74.3397 79.9394H84.5733V86.1906C84.5733 87.7975 83.2587 89.1121 81.6518 89.1121L59.054 89.1115V72.0428C59.054 69.1596 56.6934 66.799 53.8101 66.799L43.092 66.7995V58.8261C43.092 57.2192 44.408 55.896 46.0149 55.896ZM51.9735 73.95H39.9714V76.7411H51.9735V73.95ZM74.3404 67.3529C73.6485 67.3529 73.0794 67.922 73.0794 68.6216V76.4028C73.0794 77.1024 73.6485 77.6715 74.3404 77.6715H85.5506C86.2502 77.6715 86.8193 77.1024 86.8193 76.4028V68.6216C86.8193 67.922 86.2502 67.3529 85.5506 67.3529H74.3404ZM45.5235 47.3155C44.1855 47.3155 43.0936 48.4074 43.0936 49.7454V54.52C43.9318 53.9508 44.939 53.6202 46.0151 53.6202H58.3478C54.1499 52.9899 50.5207 50.6447 48.1755 47.3232H45.5235V47.3155ZM73.1104 47.3155C70.7728 50.637 67.1364 52.9823 62.9381 53.6125H77.5703V49.7454C77.5703 48.4074 76.4784 47.3155 75.1404 47.3155H73.1104Z" fill="#6643E2"/>
<path fill-rule="evenodd" clip-rule="evenodd" d="M60.6471 25.5869C67.8052 25.5869 73.6029 31.3918 73.6029 38.5427C73.6029 45.7009 67.8057 51.4986 60.6471 51.4986C53.489 51.4986 47.6913 45.6937 47.6913 38.5427C47.6836 31.3923 53.489 25.5869 60.6471 25.5869ZM62.1925 40.3266C61.7925 39.9343 61.2468 39.6882 60.6471 39.6882C59.409 39.6882 58.2941 39.1889 57.4865 38.389C56.6794 37.5818 56.1796 36.4589 56.1796 35.2289C56.1796 33.9912 56.679 32.8764 57.4865 32.0689C58.0327 31.515 58.7246 31.1151 59.5011 30.9077L59.5016 28.7163C59.5016 28.086 60.0091 27.5785 60.6394 27.5785C61.2696 27.5785 61.7771 28.086 61.7771 28.7163V30.9C62.5459 31.1079 63.2378 31.5073 63.7917 32.0612C64.5988 32.8683 65.0986 33.9913 65.0986 35.2212C65.0986 35.8515 64.5911 36.359 63.9609 36.359C63.3306 36.359 62.8231 35.8515 62.8231 35.2212C62.8231 34.6138 62.577 34.0681 62.1847 33.6758C61.7847 33.2835 61.239 33.0374 60.6393 33.0374C60.0319 33.0374 59.4863 33.2835 59.0939 33.6758C58.7016 34.0758 58.4555 34.6215 58.4555 35.2212C58.4555 35.8286 58.7016 36.3743 59.0939 36.7666C59.494 37.1589 60.0396 37.405 60.6393 37.405C61.877 37.405 62.9918 37.9044 63.7994 38.712C64.6065 39.5191 65.1063 40.6421 65.1063 41.872C65.1063 43.1097 64.6069 44.2245 63.7994 45.0321C63.2532 45.5859 62.5613 45.9859 61.7848 46.1932V48.3847C61.7848 49.0149 61.2773 49.5224 60.6471 49.5224C60.0168 49.5224 59.5093 49.0149 59.5093 48.3847V46.1932C58.7405 45.9854 58.0486 45.5778 57.4948 45.0321C56.6876 44.2249 56.1878 43.102 56.1878 41.872C56.1878 41.2417 56.6953 40.7343 57.3255 40.7343C57.9482 40.7343 58.4633 41.2418 58.4633 41.872C58.4633 42.4794 58.7094 43.0251 59.1017 43.4174C59.5017 43.8097 60.0474 44.0558 60.6471 44.0558C61.2545 44.0558 61.8002 43.8097 62.1925 43.4174C62.5848 43.0174 62.8309 42.4717 62.8309 41.872C62.8309 41.2646 62.5848 40.719 62.1925 40.3266Z" fill="url(#paint3_radial_1769_25080)"/>
<path fill-rule="evenodd" clip-rule="evenodd" d="M38.134 69.0752C36.5041 69.0752 35.1738 70.4055 35.1738 72.0354V93.3876C35.1738 95.0175 36.5041 96.3478 38.134 96.3478H53.8188C55.4487 96.3478 56.779 95.0175 56.779 93.3876L56.7785 72.0432C56.7785 70.4133 55.4482 69.083 53.8183 69.083L38.1335 69.0835L38.134 69.0752ZM49.8981 91.7574C49.8981 92.3877 50.4056 92.8952 51.0359 92.8952H53.1116C53.7419 92.8952 54.2494 92.3877 54.2494 91.7574C54.2494 91.1272 53.7419 90.6197 53.1116 90.6197H51.0359C50.4132 90.6197 49.8981 91.1272 49.8981 91.7574ZM43.7931 91.7574C43.7931 92.3877 44.3006 92.8952 44.9309 92.8952H47.0066C47.6369 92.8952 48.1444 92.3877 48.1444 91.7574C48.1444 91.1272 47.6369 90.6197 47.0066 90.6197H44.9309C44.3006 90.6197 43.7931 91.1272 43.7931 91.7574ZM37.6881 91.7574C37.6881 92.3877 38.1956 92.8952 38.8259 92.8952H40.9016C41.5319 92.8952 42.0394 92.3877 42.0394 91.7574C42.0394 91.1272 41.5319 90.6197 40.9016 90.6197H38.8259C38.1956 90.6197 37.6881 91.1272 37.6881 91.7574ZM53.1115 87.7283H51.0357C50.4126 87.7283 49.8975 87.2208 49.898 86.5905C49.898 85.9602 50.4055 85.4528 51.0357 85.4528H53.1115C53.7418 85.4528 54.2492 85.9603 54.2492 86.5905C54.2492 87.2208 53.7417 87.7283 53.1115 87.7283ZM47.0065 87.7283H44.9307C44.3 87.7283 43.7925 87.2208 43.793 86.5905C43.793 85.9602 44.3005 85.4528 44.9307 85.4528H47.0065C47.6368 85.4528 48.1442 85.9603 48.1442 86.5905C48.1442 87.2208 47.6367 87.7283 47.0065 87.7283ZM37.688 86.5905C37.688 87.2208 38.1955 87.7283 38.8257 87.7283H40.9015C41.5318 87.7283 42.0392 87.2208 42.0392 86.5905C42.0392 85.9602 41.5317 85.4528 40.9015 85.4528H38.8257C38.1955 85.4528 37.688 85.9603 37.688 86.5905ZM53.1113 82.5689H51.0356C50.4125 82.5689 49.8974 82.0538 49.8979 81.4312C49.8979 80.8009 50.4053 80.2934 51.0356 80.2934H53.1113C53.7416 80.2934 54.2491 80.8009 54.2491 81.4312C54.2491 82.0615 53.7416 82.5689 53.1113 82.5689ZM47.0064 82.5689H44.9306C44.2998 82.5689 43.7924 82.0538 43.7929 81.4312C43.7929 80.8009 44.3004 80.2934 44.9306 80.2934H47.0064C47.6366 80.2934 48.1441 80.8009 48.1441 81.4312C48.1441 82.0615 47.6366 82.5689 47.0064 82.5689ZM37.6879 81.4312C37.6879 82.0615 38.1954 82.5689 38.8256 82.5689H40.9014C41.5316 82.5689 42.0391 82.0615 42.0391 81.4312C42.0391 80.8009 41.5316 80.2934 40.9014 80.2934H38.8256C38.1953 80.2934 37.6879 80.8009 37.6879 81.4312ZM38.2871 72.2585C38.6488 71.8972 39.1558 71.6664 39.7096 71.6664H52.2344C52.7806 71.6664 53.288 71.8896 53.6569 72.2585L53.6646 72.2661C54.0258 72.6278 54.2566 73.1348 54.2566 73.6886V77.0024C54.2566 77.5639 54.0334 78.0638 53.6646 78.4327C53.2951 78.7939 52.7958 79.0247 52.2343 79.0247H39.7096C39.1558 79.0247 38.656 78.8015 38.2871 78.4327H38.2794C37.9182 78.0632 37.6874 77.5639 37.6874 77.0024V73.6886C37.6874 73.1348 37.9106 72.635 38.2794 72.2661L38.2871 72.2585Z" fill="url(#paint4_linear_1769_25080)"/>
<path d="M29.9601 149.829C30.5154 150.101 30.9518 150.481 31.2691 150.968C31.5864 151.455 31.7451 152.011 31.7451 152.634C31.7451 153.586 31.4108 154.385 30.7421 155.031C30.0734 155.677 29.2574 156 28.2941 156H23.1601V144.1H27.9201C28.8608 144.1 29.6484 144.412 30.2831 145.035C30.9291 145.658 31.2521 146.429 31.2521 147.347C31.2521 148.412 30.8214 149.24 29.9601 149.829ZM27.9201 145.579H24.7411V149.217H27.9201C28.4188 149.217 28.8381 149.041 29.1781 148.69C29.5181 148.339 29.6881 147.908 29.6881 147.398C29.6881 146.899 29.5124 146.474 29.1611 146.123C28.8211 145.76 28.4074 145.579 27.9201 145.579ZM24.7411 154.521H28.2941C28.8268 154.521 29.2744 154.334 29.6371 153.96C29.9998 153.586 30.1811 153.127 30.1811 152.583C30.1811 152.05 29.9941 151.597 29.6201 151.223C29.2688 150.849 28.8268 150.662 28.2941 150.662H24.7411V154.521ZM39.1057 152.005V147.5H40.5847V156H39.1057V154.776C38.5164 155.739 37.5984 156.221 36.3517 156.221C35.3544 156.221 34.5554 155.909 33.9547 155.286C33.354 154.651 33.0537 153.796 33.0537 152.719V147.5H34.5327V152.634C34.5327 153.314 34.7197 153.847 35.0937 154.232C35.4677 154.617 35.9834 154.81 36.6407 154.81C37.4 154.81 38.0007 154.578 38.4427 154.113C38.8847 153.637 39.1057 152.934 39.1057 152.005ZM49.4664 148.962V144.1H50.9454V156H49.4664V154.538C48.7411 155.66 47.6701 156.221 46.2534 156.221C45.0521 156.221 44.0377 155.79 43.2104 154.929C42.3717 154.056 41.9524 152.997 41.9524 151.75C41.9524 150.515 42.3717 149.461 43.2104 148.588C44.0491 147.715 45.0634 147.279 46.2534 147.279C47.6701 147.279 48.7411 147.84 49.4664 148.962ZM46.4404 154.793C47.3017 154.793 48.0214 154.504 48.5994 153.926C49.1774 153.325 49.4664 152.6 49.4664 151.75C49.4664 150.889 49.1774 150.169 48.5994 149.591C48.0214 149.002 47.3017 148.707 46.4404 148.707C45.5904 148.707 44.8764 149.002 44.2984 149.591C43.7204 150.169 43.4314 150.889 43.4314 151.75C43.4314 152.6 43.7204 153.325 44.2984 153.926C44.8764 154.504 45.5904 154.793 46.4404 154.793ZM59.8332 148.962V147.5H61.2952V155.643C61.2952 156.901 60.8702 157.876 60.0202 158.567C59.1589 159.27 58.1389 159.621 56.9602 159.621C56.0082 159.621 55.1865 159.44 54.4952 159.077C53.8039 158.726 53.2825 158.216 52.9312 157.547L54.2232 156.816C54.6879 157.768 55.6115 158.244 56.9942 158.244C57.8782 158.244 58.5695 158.012 59.0682 157.547C59.5782 157.082 59.8332 156.448 59.8332 155.643V154.436C59.0852 155.569 58.0199 156.136 56.6372 156.136C55.4132 156.136 54.3875 155.705 53.5602 154.844C52.7215 153.971 52.3022 152.923 52.3022 151.699C52.3022 150.475 52.7215 149.432 53.5602 148.571C54.3875 147.71 55.4132 147.279 56.6372 147.279C58.0312 147.279 59.0965 147.84 59.8332 148.962ZM59.8332 151.699C59.8332 150.849 59.5442 150.135 58.9662 149.557C58.3882 148.979 57.6685 148.69 56.8072 148.69C55.9459 148.69 55.2262 148.979 54.6482 149.557C54.0702 150.135 53.7812 150.849 53.7812 151.699C53.7812 152.56 54.0702 153.28 54.6482 153.858C55.2262 154.436 55.9459 154.725 56.8072 154.725C57.6685 154.725 58.3882 154.436 58.9662 153.858C59.5442 153.28 59.8332 152.56 59.8332 151.699ZM71.288 152.43H64.165C64.3124 153.178 64.658 153.767 65.202 154.198C65.746 154.617 66.426 154.827 67.242 154.827C68.364 154.827 69.18 154.413 69.69 153.586L70.948 154.3C70.1094 155.581 68.8627 156.221 67.208 156.221C65.8707 156.221 64.7714 155.802 63.91 154.963C63.0714 154.102 62.652 153.031 62.652 151.75C62.652 150.458 63.0657 149.393 63.893 148.554C64.7204 147.704 65.7914 147.279 67.106 147.279C68.3527 147.279 69.367 147.721 70.149 148.605C70.9424 149.466 71.339 150.52 71.339 151.767C71.339 151.982 71.322 152.203 71.288 152.43ZM67.106 148.673C66.324 148.673 65.6667 148.894 65.134 149.336C64.6127 149.778 64.2897 150.379 64.165 151.138H69.843C69.7184 150.356 69.4067 149.75 68.908 149.319C68.4094 148.888 67.8087 148.673 67.106 148.673ZM77.0061 147.5V148.928H74.7451V153.535C74.7451 153.954 74.8245 154.255 74.9831 154.436C75.1531 154.606 75.4081 154.697 75.7481 154.708C76.0881 154.708 76.5075 154.697 77.0061 154.674V156C75.7028 156.17 74.7508 156.062 74.1501 155.677C73.5608 155.292 73.2661 154.578 73.2661 153.535V148.928H71.5831V147.5H73.2661V145.562L74.7451 145.12V147.5H77.0061ZM79.0971 145.953C78.8138 145.953 78.5758 145.857 78.3831 145.664C78.1905 145.471 78.0941 145.239 78.0941 144.967C78.0941 144.695 78.1905 144.463 78.3831 144.27C78.5758 144.066 78.8138 143.964 79.0971 143.964C79.3691 143.964 79.6015 144.066 79.7941 144.27C79.9868 144.463 80.0831 144.695 80.0831 144.967C80.0831 145.239 79.9868 145.471 79.7941 145.664C79.6015 145.857 79.3691 145.953 79.0971 145.953ZM79.8281 156H78.3491V147.5H79.8281V156ZM85.9095 147.279C86.9068 147.279 87.7058 147.596 88.3065 148.231C88.9072 148.854 89.2075 149.704 89.2075 150.781V156H87.7285V150.866C87.7285 150.186 87.5415 149.653 87.1675 149.268C86.7935 148.883 86.2778 148.69 85.6205 148.69C84.8612 148.69 84.2605 148.928 83.8185 149.404C83.3765 149.869 83.1555 150.566 83.1555 151.495V156H81.6765V147.5H83.1555V148.724C83.7448 147.761 84.6628 147.279 85.9095 147.279ZM97.9192 148.962V147.5H99.3812V155.643C99.3812 156.901 98.9562 157.876 98.1062 158.567C97.2449 159.27 96.2249 159.621 95.0462 159.621C94.0942 159.621 93.2725 159.44 92.5812 159.077C91.8899 158.726 91.3685 158.216 91.0172 157.547L92.3092 156.816C92.7739 157.768 93.6975 158.244 95.0802 158.244C95.9642 158.244 96.6555 158.012 97.1542 157.547C97.6642 157.082 97.9192 156.448 97.9192 155.643V154.436C97.1712 155.569 96.1059 156.136 94.7232 156.136C93.4992 156.136 92.4735 155.705 91.6462 154.844C90.8075 153.971 90.3882 152.923 90.3882 151.699C90.3882 150.475 90.8075 149.432 91.6462 148.571C92.4735 147.71 93.4992 147.279 94.7232 147.279C96.1172 147.279 97.1825 147.84 97.9192 148.962ZM97.9192 151.699C97.9192 150.849 97.6302 150.135 97.0522 149.557C96.4742 148.979 95.7545 148.69 94.8932 148.69C94.0319 148.69 93.3122 148.979 92.7342 149.557C92.1562 150.135 91.8672 150.849 91.8672 151.699C91.8672 152.56 92.1562 153.28 92.7342 153.858C93.3122 154.436 94.0319 154.725 94.8932 154.725C95.7545 154.725 96.4742 154.436 97.0522 153.858C97.6302 153.28 97.9192 152.56 97.9192 151.699Z" fill="#FAFAFA"/>
<defs>
<radialGradient id="paint0_radial_1769_25080" cx="0" cy="0" r="1" gradientUnits="userSpaceOnUse" gradientTransform="translate(415.259 213.578) rotate(-166.057) scale(42.1747 21.2646)">
<stop stop-color="#6D42EA"/>
<stop offset="1" stop-color="#ABF3FF"/>
</radialGradient>
<radialGradient id="paint1_radial_1769_25080" cx="0" cy="0" r="1" gradientUnits="userSpaceOnUse" gradientTransform="translate(415.259 261.955) rotate(-162.013) scale(43.0352 27.2514)">
<stop stop-color="#6D42EA"/>
<stop offset="1" stop-color="#ABF3FF"/>
</radialGradient>
<radialGradient id="paint2_radial_1769_25080" cx="0" cy="0" r="1" gradientUnits="userSpaceOnUse" gradientTransform="translate(254.361 181.556) rotate(-171.503) scale(67.9153 21.3974)">
<stop stop-color="#6D42EA"/>
<stop offset="1" stop-color="#ABF3FF"/>
</radialGradient>
<radialGradient id="paint3_radial_1769_25080" cx="0" cy="0" r="1" gradientUnits="userSpaceOnUse" gradientTransform="translate(78.9195 85.5201) rotate(-136.711) scale(70.6834 76.062)">
<stop stop-color="#6D42EA"/>
<stop offset="1" stop-color="#ABF3FF"/>
</radialGradient>
<linearGradient id="paint4_linear_1769_25080" x1="-20.8523" y1="61.8303" x2="87.1292" y2="60.224" gradientUnits="userSpaceOnUse">
<stop stop-color="#ABF3FF"/>
<stop offset="1" stop-color="#6D42EA"/>
</linearGradient>
</defs>
</svg>
