<svg width="257" height="70" viewBox="0 0 1150 430" fill="none" xmlns="http://www.w3.org/2000/svg">
<path d="M266.645 41.5481C242.739 18.6016 204.757 19.3792 181.811 43.2849L41.5496 189.407C18.6024 213.313 19.3798 251.295 43.286 274.242L190.136 415.201C214.042 438.148 252.024 437.37 274.971 413.464L415.232 267.338C438.179 243.432 437.401 205.45 413.495 182.503L266.645 41.5481Z" fill="url(#paint0_radial_226_12115)"/>
<path d="M270.167 284.521C254.984 295.87 236.276 300.63 217.505 297.917C198.734 295.208 182.135 285.344 170.786 270.161C159.437 254.979 154.677 236.271 157.391 217.5C160.104 198.729 169.963 182.135 185.146 170.786C200.328 159.417 219.036 154.661 237.807 157.37C256.583 160.083 273.177 169.943 284.526 185.141C307.969 216.505 301.531 261.078 270.167 284.521ZM298.531 174.672C284.391 155.734 263.719 143.443 240.312 140.063C216.906 136.682 193.594 142.615 174.672 156.776C155.74 170.917 143.443 191.609 140.068 215C136.687 238.391 142.62 261.714 156.781 280.635C170.922 299.573 191.609 311.865 215 315.245C238.406 318.625 261.713 312.688 280.656 298.531C319.724 269.307 327.755 213.74 298.531 174.672Z" fill="white"/>
<path d="M204.349 238.417C208.359 243.427 214.901 248.578 221.354 249.511C225.583 250.12 231.156 248.464 231.87 243.537C232.688 237.891 224.979 235.745 217.453 231.672C210.021 227.63 202.714 221.938 204.484 209.667C206.203 197.771 216.063 188 228.448 188.964L230.208 176.787L239.573 178.141L237.813 190.318C244.073 191.839 250.37 194.495 255.302 198.813L245.745 212.339C242.547 208.88 238.297 206.214 233.568 205.531C229.135 204.891 224.766 205.912 224.182 209.938C223.516 214.557 229.568 217.5 232.927 219.203C243.849 224.703 253.615 230.417 251.589 244.432C249.552 258.521 240.448 264.604 226.891 265.932L225.073 278.516L215.708 277.162L217.438 265.188C213.005 264.547 208.813 263.021 204.818 260.792C200.818 258.563 196.771 256.042 193.896 252.432L204.349 238.417Z" fill="white"/>
<path d="M355.786 57.0904C331.88 34.1438 293.898 34.9214 270.951 58.8274L150.175 184.652C127.228 208.558 128.005 246.54 151.912 269.487L274.522 387.176C298.428 410.122 336.409 409.345 359.356 385.439L480.133 259.615C503.08 235.708 502.302 197.726 478.396 174.779L355.786 57.0904Z" fill="url(#paint1_radial_226_12115)"/>
<g filter="url(#filter0_b_226_12115)">
<path d="M266.645 41.5481C242.739 18.6016 204.757 19.3792 181.811 43.2849L41.5496 189.407C18.6024 213.313 19.3798 251.295 43.286 274.242L190.136 415.201C214.042 438.148 252.024 437.37 274.971 413.464L415.232 267.338C438.179 243.432 437.401 205.45 413.495 182.503L266.645 41.5481Z" fill="#2B2B2B" fill-opacity="0.3"/>
<path d="M270.167 284.521C254.984 295.87 236.276 300.63 217.505 297.917C198.734 295.208 182.135 285.344 170.786 270.161C159.437 254.979 154.677 236.271 157.391 217.5C160.104 198.729 169.963 182.135 185.146 170.786C200.328 159.417 219.036 154.661 237.807 157.37C256.583 160.083 273.177 169.943 284.526 185.141C307.969 216.505 301.531 261.078 270.167 284.521ZM298.531 174.672C284.391 155.734 263.719 143.443 240.312 140.063C216.906 136.682 193.594 142.615 174.672 156.776C155.74 170.917 143.443 191.609 140.068 215C136.687 238.391 142.62 261.714 156.781 280.635C170.922 299.573 191.609 311.865 215 315.245C238.406 318.625 261.713 312.688 280.656 298.531C319.724 269.307 327.755 213.74 298.531 174.672Z" fill="white"/>
<path d="M199.34 198.073V200.569V211.513H255.98V198.073H199.34ZM212.78 234.361H250.316V220.921H212.78L199.34 220.825V247.993V250.489V261.433H255.98V247.993H212.78V234.361Z" fill="white"/>
</g>
<path d="M588.4 181.52V184.848V199.44H663.92V181.52H588.4ZM606.32 229.904H656.368V211.984H606.32L588.4 211.856V248.08V251.408V266H663.92V248.08H606.32V229.904ZM672.115 260.752L668.275 266H690.547L691.571 264.72L703.731 248.08L692.595 232.976L672.115 260.752ZM750.835 260.752L722.675 222.352L748.915 186.896L752.755 181.52H730.483L729.459 182.8L711.539 207.248L693.619 182.8L692.595 181.52H670.195L674.163 186.768L700.403 222.352V222.48L711.539 237.584L720.115 249.232L731.507 264.72L732.531 266H754.803L750.835 260.752ZM820.639 182.8C820.639 182.8 819.487 182.416 817.695 182.032C815.903 181.776 813.983 181.52 813.983 181.52H767.775V184.848V199.44H809.375V199.568H812.319L812.447 199.44C812.575 199.44 812.703 199.44 812.831 199.44C816.287 199.44 818.975 202.256 818.975 205.584C818.975 209.04 816.287 211.728 812.831 211.728H785.695H767.775V266H785.695V229.776H814.623C814.623 229.776 815.135 229.776 818.335 229.008C821.535 228.24 821.663 228.112 821.663 228.112C824.991 226.704 828.063 224.656 830.495 221.968C834.719 217.616 836.895 211.728 836.895 205.584C836.895 195.088 830.239 186.128 820.639 182.8ZM849.775 181.52V184.848V199.44H925.295V181.52H849.775ZM867.695 229.904H917.743V211.984H867.695L849.775 211.856V248.08V251.408V266H925.295V248.08H867.695V229.904ZM984.486 266V211.984H966.566V266H984.486ZM938.15 181.52V199.44H966.566H984.486H1014.31V181.52H938.15ZM1104.37 260.88L1080.18 221.2C1080.3 221.2 1080.43 221.072 1080.56 220.944L1080.69 220.816C1080.82 220.816 1080.94 220.688 1080.94 220.56C1081.2 220.432 1081.33 220.304 1081.58 220.176C1081.71 220.048 1081.97 219.792 1082.22 219.664C1082.22 219.536 1082.35 219.536 1082.35 219.536C1082.48 219.408 1082.74 219.152 1082.86 219.024C1083.38 218.512 1083.89 218.128 1084.53 217.488C1090.29 211.728 1094.38 204.56 1096.05 196.624C1096.82 193.552 1097.07 190.48 1097.07 187.408C1097.07 186.384 1097.07 185.36 1096.94 184.464L1096.82 181.264H1025.78V199.184H1064.18H1076.08C1074.93 201.232 1073.52 203.152 1071.86 204.688C1069.68 206.864 1067.25 208.528 1064.43 209.808C1064.3 209.808 1064.3 209.808 1064.18 209.936C1061.23 211.088 1058.03 211.728 1054.83 211.728H1025.78V266H1043.7V229.776H1054.83C1055.09 229.776 1055.34 229.648 1055.6 229.648H1055.73H1055.86H1056.11C1056.37 229.648 1056.5 229.648 1056.75 229.648C1056.88 229.648 1057.01 229.648 1057.01 229.648C1057.26 229.648 1057.52 229.648 1057.78 229.648H1058.03L1058.16 229.52C1058.42 229.52 1058.67 229.52 1059.06 229.52C1059.31 229.52 1059.57 229.392 1059.95 229.392C1060.08 229.392 1060.21 229.392 1060.34 229.392C1060.59 229.264 1060.85 229.264 1061.1 229.264C1061.23 229.264 1061.36 229.264 1061.49 229.136C1061.62 229.136 1061.87 229.136 1062.13 229.136C1062.64 229.008 1063.15 228.88 1063.66 228.752L1085.42 264.464L1086.45 266H1107.44L1104.37 260.88ZM1113.21 261.008L1110.53 266H1133.05L1133.95 264.336L1152.25 231.184L1140.99 210.96L1113.21 261.008ZM1205.63 261.008L1169.79 196.368L1162.37 183.056L1161.6 181.264H1157.25L1156.35 183.056L1149.05 196.368L1148.16 198.032L1159.42 218.384L1159.68 218.896L1168 233.872L1184.89 264.336L1185.79 266H1208.32L1205.63 261.008Z" fill="url(#paint2_linear_226_12115)"/>
<defs>
<filter id="filter0_b_226_12115" x="-20" y="-20" width="496.781" height="496.75" filterUnits="userSpaceOnUse" color-interpolation-filters="sRGB">
<feFlood flood-opacity="0" result="BackgroundImageFix"/>
<feGaussianBlur in="BackgroundImageFix" stdDeviation="10"/>
<feComposite in2="SourceAlpha" operator="in" result="effect1_backgroundBlur_226_12115"/>
<feBlend mode="normal" in="SourceGraphic" in2="effect1_backgroundBlur_226_12115" result="shape"/>
</filter>
<radialGradient id="paint0_radial_226_12115" cx="0" cy="0" r="1" gradientUnits="userSpaceOnUse" gradientTransform="translate(347.5 353.5) rotate(-135.241) scale(755.55 760.363)">
<stop stop-color="#6D42EA"/>
<stop offset="1" stop-color="#ABF3FF"/>
</radialGradient>
<radialGradient id="paint1_radial_226_12115" cx="0" cy="0" r="1" gradientUnits="userSpaceOnUse" gradientTransform="translate(458.5 365.5) rotate(-145.483) scale(499.421 502.741)">
<stop stop-color="#6D42EA"/>
<stop offset="1" stop-color="#ABF3FF"/>
</radialGradient>
<linearGradient id="paint2_linear_226_12115" x1="582" y1="237.195" x2="1200.78" y2="130.34" gradientUnits="userSpaceOnUse">
<stop stop-color="#6D42EA"/>
<stop offset="1" stop-color="#ABF3FF"/>
</linearGradient>
</defs>
</svg>
